<svg width="512" height="512" viewBox="0 0 512 512" fill="none" xmlns="http://www.w3.org/2000/svg">
<circle cx="256" cy="256" r="256" fill="white"/>
<path d="M171.244 222.047C183.92 236.673 196.597 249.35 195.622 269.827C195.622 273.728 208.298 277.628 208.298 277.628C209.273 255.201 195.622 240.574 181.97 224.972C180.02 223.022 167.343 217.171 171.244 222.047ZM202.447 296.156C196.597 384.892 52.279 413.17 26.9259 318.583C16.1996 280.554 31.8015 243.499 62.0302 219.121C88.3584 197.669 131.264 202.544 160.517 215.221C159.542 214.246 156.617 204.494 153.691 203.519C109.811 184.017 63.0053 189.868 32.7766 228.872C9.37373 259.101 14.2493 307.857 32.7766 339.061C50.3288 368.315 78.6072 388.792 112.736 390.742C160.517 394.643 208.298 353.688 211.224 306.882C210.248 304.932 202.447 298.106 202.447 296.156Z" fill="#1D1D1B"/>
<path d="M235.601 284.454C220.975 284.454 207.323 280.554 192.696 279.579C177.094 278.604 162.467 281.529 146.866 285.429C142.965 286.405 138.089 287.38 134.189 287.38C131.264 287.38 141.99 271.778 141.99 270.803C147.841 262.027 154.666 254.226 160.517 244.474C170.268 227.897 180.995 206.445 196.597 194.743C208.298 185.967 232.676 251.3 234.626 259.101C236.577 266.902 247.303 267.877 244.378 258.126C239.502 240.574 231.701 225.947 222.925 209.37C217.074 198.644 211.223 185.967 199.522 180.116C180.995 171.34 156.617 221.071 150.766 232.773C142.965 245.449 103.96 283.479 126.388 297.131C137.114 303.957 150.766 298.106 161.492 295.181C187.821 289.33 213.174 296.156 239.502 297.131C246.328 298.106 241.452 285.429 235.601 284.454ZM399.422 286.405C383.82 267.877 375.044 246.425 361.392 225.947C351.641 211.32 348.715 193.768 338.964 179.141C337.014 175.241 332.138 173.291 328.238 176.216C300.934 199.619 290.208 234.723 265.83 260.076C259.979 265.927 269.731 276.653 275.581 270.803C299.959 245.449 310.686 211.32 337.989 186.942C334.089 185.967 331.163 184.992 327.263 184.017C333.113 191.818 334.089 201.569 337.014 210.345C339.939 220.096 347.74 227.897 352.616 236.673C365.292 256.176 374.068 276.653 388.695 294.205C396.496 302.006 406.247 293.23 399.422 286.405Z" fill="#1D1D1B"/>
<path d="M275.581 268.852C263.88 261.051 247.303 254.226 234.626 263.002C220 273.728 228.776 294.205 239.502 302.982C251.203 312.733 270.706 317.608 281.432 303.957C289.233 293.23 290.208 277.628 277.532 270.803C269.731 265.927 263.88 276.653 272.656 280.554C276.556 282.504 271.681 292.255 269.731 295.181C263.88 302.982 253.154 298.106 246.328 293.23C239.502 287.38 238.527 277.628 245.353 271.778C250.228 266.902 261.93 272.753 266.805 275.678C269.731 277.628 273.631 278.604 276.556 276.653C279.482 274.703 277.532 270.803 275.581 268.852ZM407.223 157.689C405.272 135.261 393.571 126.485 372.118 127.46C355.541 128.435 337.989 126.485 329.213 142.087C325.313 148.913 337.014 179.141 320.437 176.216C311.661 175.241 303.86 175.241 295.084 175.241C266.805 175.241 238.527 174.266 210.248 176.216C205.373 176.216 196.597 181.092 207.323 180.116C247.303 177.191 287.283 181.092 327.263 181.092C332.138 181.092 338.964 179.141 342.865 175.241C347.74 169.39 343.84 154.763 343.84 147.937C353.591 128.435 367.243 124.535 386.745 135.261C392.596 142.087 395.521 149.888 394.546 158.664C392.596 162.564 407.223 160.614 407.223 157.689ZM194.646 133.311C190.746 145.987 193.671 159.639 193.671 172.315C193.671 175.241 208.298 175.241 208.298 173.291C208.298 160.614 205.373 146.962 209.273 134.286C209.273 133.311 195.622 130.385 194.646 133.311Z" fill="#1D1D1B"/>
<path d="M179.045 133.311C196.597 131.36 225.851 132.336 238.527 146.962C243.403 152.813 255.104 144.037 250.229 139.161C235.602 121.609 204.398 119.659 182.945 121.609C177.095 121.609 170.269 133.311 179.045 133.311ZM368.218 209.37C461.83 182.067 524.237 302.982 446.228 358.563C401.372 390.742 334.089 374.165 317.512 319.559C305.811 279.579 314.587 247.4 344.815 221.071C344.815 221.071 334.089 212.295 332.139 214.246C289.234 253.25 290.209 321.509 336.039 358.563C371.144 386.842 411.124 388.792 451.103 371.24C507.66 345.887 503.76 274.703 469.631 234.723C442.327 202.544 395.522 191.818 356.517 202.544C355.542 202.544 364.318 210.345 368.218 209.37Z" fill="#1D1D1B"/>
</svg>
